# xmcd
#
# Track frame offsets:
#	150
#	15032
#	33147
#	45302
#	56965
#	71119
#	88071
#	99469
#	112910
#	130371
#	142880
#	162126
#	180404
#	199528
#	212113
#	226381
#	242407
#	258747
#	273622
#	294844
#	307094
#
# Disc length: 4258 seconds
#
# Revision: 0
# Processed by: cddbd v1.5.1PL0 Copyright (c) Steve Scherf et al.
# Submitted via: dBpowerAMP V4.0
#
DISCID=1f10a015
DTITLE=The essential country album - Disc2
DYEAR=1900
DGENRE=Country
TTITLE0=Dan fogelberg- longer
TTITLE1=Chet Atkins/mark Kopfler -poor Boy Blues
TTITLE2=Bob Dylan -I'll Be your baby tonight
TTITLE3=Steve Earle- Guitar Town
TTITLE4=Tammy Wynette- Stand by your man
TTITLE5=Johnny Cash- Gohst riders in the sky
TTITLE6=roy Orbison -Blue Bayon
TTITLE7=Tanya Tucker- Delta Dawn
TTITLE8=Ricky Skaggs -Country Boy
TTITLE9=Patsy Cline-Crazy
TTITLE10=Kris Kristofferson-Me and bobby Mcgee
TTITLE11=Inidigo Girls -Closer to fine
TTITLE12=Nancy griffiths- closer to fine
TTITLE13=Nilson -Everybody's talking
TTITLE14=Elvis costello -Agood year for the roses
TTITLE15=Willie Nelson -Always on my mind
TTITLE16=Charlie daniel's band-devil want
TTITLE17=wynonna -Girls with Guitars
TTITLE18=Marty Robbins- El Paso
TTITLE19=Glen Campell-Galveston
TTITLE20=Merle Maggard-Okie from Muskogee
EXTD=
EXTT0=
EXTT1=
EXTT2=
EXTT3=
EXTT4=
EXTT5=
EXTT6=
EXTT7=
EXTT8=
EXTT9=
EXTT10=
EXTT11=
EXTT12=
EXTT13=
EXTT14=
EXTT15=
EXTT16=
EXTT17=
EXTT18=
EXTT19=
EXTT20=
PLAYORDER=
